<svg xmlns="http://www.w3.org/2000/svg" xmlns:xlink="http://www.w3.org/1999/xlink" width="22" height="22"><defs><path id="a" d="M1363.79 6000.44c.06.07.1.15.14.23l.02.08c.02.07.04.14.04.2v.12a.9.9 0 0 1-.04.24v.02a.84.84 0 0 1-.13.22l-.02.03-3.55 4.18a.64.64 0 0 1-.99.01.9.9 0 0 1-.01-1.14l1.9-2.25c-2.78.37-5.53-.22-5.66-.25-8.47-1.54-14.46-9.36-13.36-17.45.05-.4.35-.68.7-.68a.7.7 0 0 1 .1 0c.39.08.65.5.59.93-.98 7.2 4.49 14.2 12.21 15.6.04.01 2.88.62 5.54.2l-2.94-1.75c-.35-.2-.48-.7-.3-1.1.17-.4.6-.55.94-.34l4.65 2.76c.06.03.12.08.17.14z"/></defs><use fill="#f9f9f9" xlink:href="#a" transform="translate(-1342 -5984)"/></svg>