<svg xmlns="http://www.w3.org/2000/svg" xmlns:xlink="http://www.w3.org/1999/xlink" width="30" height="30"><defs><path id="a" d="M1124.42 63h-24.84a2.58 2.58 0 0 1-2.58-2.58V37.45a2.58 2.58 0 0 1 2.58-2.58h1.17v-.93a.94.94 0 0 1 1.87 0v.93h3.29v-.93a.94.94 0 0 1 1.87 0v.93h3.28v-.93a.94.94 0 0 1 1.88 0v.93h3.28v-.93a.94.94 0 0 1 1.87 0v.93h3.28v-.93a.94.94 0 0 1 1.88 0v.93h1.17a2.58 2.58 0 0 1 2.58 2.58v22.97a2.58 2.58 0 0 1-2.58 2.58zm.7-25.55a.7.7 0 0 0-.7-.7h-1.17v1.87a.94.94 0 0 1-1.88 0v-1.87h-3.28v1.87a.94.94 0 0 1-1.87 0v-1.87h-3.28v1.87a.94.94 0 0 1-1.88 0v-1.87h-3.28v1.87a.94.94 0 0 1-1.87 0v-1.87h-3.29v1.87a.94.94 0 0 1-1.87 0v-1.87h-1.17a.7.7 0 0 0-.7.7v21.07c.2.15.43.26.7.26h24.84c.27 0 .5-.1.7-.26zm0 22.14c-.22.08-.45.13-.7.13h-24.84c-.25 0-.48-.05-.7-.13v.83c0 .39.31.7.7.7h24.84a.7.7 0 0 0 .7-.7zm-3.12-6.43h-3.12a.79.79 0 0 1-.79-.79v-3.12c0-.43.36-.78.79-.78h3.12c.43 0 .78.35.78.78v3.12c0 .43-.35.79-.78.79zm-.16-3.75h-2.8v2.8h2.8zm.16-1.88h-3.12a.79.79 0 0 1-.79-.78v-3.12c0-.43.36-.79.79-.79h3.12c.43 0 .78.36.78.79v3.12c0 .43-.35.78-.78.78zm-.16-3.75h-2.8v2.81h2.8zm-5.47 9.38h-3.12a.79.79 0 0 1-.78-.79v-3.12c0-.43.35-.78.78-.78h3.12c.43 0 .79.35.79.78v3.12c0 .43-.36.79-.79.79zm-.15-3.75h-2.81v2.8h2.8zm.15-1.88h-3.12a.79.79 0 0 1-.78-.78v-3.12c0-.43.35-.79.78-.79h3.12c.43 0 .79.36.79.79v3.12c0 .43-.36.78-.79.78zm-.15-3.75h-2.81v2.81h2.8zm-5.47 9.38h-3.12a.79.79 0 0 1-.79-.79v-3.12c0-.43.36-.78.79-.78h3.12c.43 0 .78.35.78.78v3.12c0 .43-.35.79-.78.79zm-.16-3.75h-2.8v2.8h2.8zm.16-1.88h-3.12a.79.79 0 0 1-.79-.78v-3.12c0-.43.36-.79.79-.79h3.12c.43 0 .78.36.78.79v3.12c0 .43-.35.78-.78.78zm-.16-3.75h-2.8v2.81h2.8zm-5.47 9.38H1102a.79.79 0 0 1-.78-.79v-3.12c0-.43.35-.78.78-.78h3.12c.43 0 .79.35.79.78v3.12c0 .43-.36.79-.79.79zm-.15-3.75h-2.81v2.8h2.8zm.15-1.88H1102a.79.79 0 0 1-.78-.78v-3.12c0-.43.35-.79.78-.79h3.12c.43 0 .79.36.79.79v3.12c0 .43-.36.78-.79.78zm-.15-3.75h-2.81v2.81h2.8z"/></defs><use fill="#423e3a" xlink:href="#a" transform="translate(-1097 -33)"/></svg>