<svg xmlns="http://www.w3.org/2000/svg" xmlns:xlink="http://www.w3.org/1999/xlink" width="66" height="52"><defs><path id="a" d="M1178.29 6672v10.61h19.47l-20.76 24.9v9.49h38v-10.55h-20.4l19.7-25.13V6672z"/><path id="b" d="M1241.2 6717.2h-6.96a1.8 1.8 0 0 1-1.79-1.8c0-1 .8-1.8 1.79-1.8h5.05c-.55-4.04-2.7-9.74-5.5-11.99-.35.1-.77.22-1.25.34-.41.11-.93.24-1.1.31a1.79 1.79 0 0 1-2.31-1.05 1.8 1.8 0 0 1 1.04-2.32c.37-.13.88-.27 1.48-.42.47-.13 1.35-.35 1.58-.47.53-.25 1.2-.25 1.72.05 4.91 2.88 8.05 12.2 8.05 17.35 0 .99-.8 1.8-1.8 1.8zm-13.54-23.4a6.57 6.57 0 0 1-6.05-3.06 1.8 1.8 0 0 1 .5-2.5 1.78 1.78 0 0 1 2.48.5c1.11 1.68 2.62 1.49 2.64 1.48l.29-.02c1.37 0 3.8-4.86 3.8-8.4 0-2.7-1.7-4.89-3.8-4.89a1.8 1.8 0 0 1-1.8-1.8c0-1 .8-1.8 1.8-1.8 4.07 0 7.38 3.8 7.38 8.49 0 4.18-2.75 11.84-7.24 12zm-13.34-2.7c-6.02 0-9.17-8.99-9.17-13.8 0-5.68 4.11-10.3 9.17-10.3s9.17 4.62 9.17 10.3c0 4.81-3.15 13.8-9.17 13.8zm0-20.5c-3.09 0-5.6 3-5.6 6.7 0 3.69 2.51 10.2 5.6 10.2s5.6-6.51 5.6-10.2c0-3.7-2.51-6.7-5.6-6.7zm-7.94 17.64a1.8 1.8 0 0 1 .5 2.5 6.57 6.57 0 0 1-6.06 3.06c-4.49-.16-7.23-7.82-7.23-12 0-4.68 3.3-8.5 7.38-8.5.98 0 1.79.81 1.79 1.8 0 1-.8 1.81-1.8 1.81-2.09 0-3.8 2.2-3.8 4.89 0 3.54 2.43 8.4 3.8 8.4.1 0 .2 0 .3.02.12.02 1.56.14 2.64-1.48a1.78 1.78 0 0 1 2.48-.5zm-10.6 9.77c.41.22.71.45.93.62.2.16.28.22.4.26a1.8 1.8 0 0 1 1.04 2.32 1.78 1.78 0 0 1-2.3 1.05c-.36-.13-.65-.3-.88-.45-2.69 2.37-4.73 7.87-5.26 11.78h1.6c1 0 1.8.81 1.8 1.8 0 1-.8 1.8-1.8 1.8h-3.52a1.8 1.8 0 0 1-1.79-1.8c0-5.15 3.14-14.46 8.05-17.34a1.77 1.77 0 0 1 1.72-.04zm9.33-.56a3.56 3.56 0 0 1 4-.1 9.64 9.64 0 0 0 5.2 1.55c1.83 0 3.63-.53 5.21-1.54a3.54 3.54 0 0 1 4.01.15c4.61 3.34 7.37 11.68 7.37 17.77 0 2-1.6 3.72-3.58 3.72h-26a3.69 3.69 0 0 1-3.58-3.72c0-6.09 2.76-14.49 7.37-17.83zm22.21 17.95c0-5.4-2.34-12.35-5.88-14.9a13.14 13.14 0 0 1-7.12 2.11c-2.6 0-5.03-.77-7.13-2.12-3.53 2.56-5.87 9.5-5.87 14.9zm-19.06-12.22c.3-.22.7-.23 1-.03.52.32 1.05.6 1.6.82a.9.9 0 0 1 .49 1.17.9.9 0 0 1-1.17.5c-.45-.18-.9-.4-1.33-.65-1.93 1.62-2.76 3.93-2.76 7.59a.9.9 0 0 1-1.79 0c0-4.52 1.22-7.42 3.96-9.4zm5.17 1.43c.3.03.59.04.89.04.5 0 .9.4.9.9s-.4.9-.9.9c-.35 0-.7-.02-1.05-.05a.9.9 0 0 1-.81-.98.9.9 0 0 1 .97-.81z"/></defs><use fill="#f5c31d" xlink:href="#a" transform="translate(-1177 -6667)"/><use fill="#423e3a" xlink:href="#b" transform="translate(-1177 -6667)"/></svg>