<svg xmlns="http://www.w3.org/2000/svg" xmlns:xlink="http://www.w3.org/1999/xlink" width="54" height="58"><defs><path id="a" d="M777.29 6672v10.61h19.47l-20.76 24.9v9.49h38v-10.55h-20.4l19.7-25.13V6672z"/><path id="b" d="M828.54 6685.26c-.38.59-.38 1.75 0 2.34l.78 1.21c.64 1 .83 2.21.53 3.33a4.17 4.17 0 0 1-2.13 2.6l-1.28.66a2.56 2.56 0 0 0-1.17 2.03l.06 1.44c.02.4-.03.77-.11 1.14l3.22 17.68c.06.18.1.24.1.44 0 1-.83 1.7-1.83 1.7h-.02c-.16 0-.33.1-.49.05l-7.94-2.12-6.67 4.86c-.31.23-.69.38-1.07.38a1.82 1.82 0 0 1-1.8-1.5l-2.4-13.2-2.07 11.38a1.82 1.82 0 0 1-2.87 1.15l-4.15-3-4.94 1.35a1.82 1.82 0 0 1-2.28-2.08l2.77-15.19a4.12 4.12 0 0 1-1.11-3.04l.06-1.43c.04-.7-.54-1.71-1.17-2.04l-1.28-.66a4.17 4.17 0 0 1-2.13-2.6c-.3-1.12-.1-2.33.53-3.33l.78-1.2c.38-.6.38-1.76 0-2.35l-.78-1.21c-.64-1-.83-2.2-.53-3.32a4.18 4.18 0 0 1 2.13-2.61l1.28-.66a2.55 2.55 0 0 0 1.17-2.03l-.06-1.44a4.12 4.12 0 0 1 1.13-3.08 4.16 4.16 0 0 1 3.22-1.24l1.44.1c.76 0 1.73-.6 2.04-1.2l.66-1.29a4.14 4.14 0 0 1 5.95-1.6l1.22.78c.55.35 1.8.35 2.35 0l1.21-.78a4.14 4.14 0 0 1 5.95 1.59l.66 1.27a2.6 2.6 0 0 0 1.99 1.18l1.49-.07a4.12 4.12 0 0 1 4.35 4.34l-.06 1.44c-.03.7.55 1.7 1.17 2.03l1.28.66a4.17 4.17 0 0 1 2.13 2.6c.3 1.12.1 2.33-.53 3.33zM811.8 6718l5.03-3.64a1.83 1.83 0 0 1 1.55-.28l6 1.65-2.3-12.6c-.3.05-.6.23-.9.23l-1.64.08c-.76 0-1.73.42-2.04 1.02l-.66 1.2a4.1 4.1 0 0 1-5.95 1.54l-1.2-.79zm-14.7-3.91a1.81 1.81 0 0 1 1.57.28l2.5 1.81 1.55-8.48c-.26-.07-.5-.18-.74-.3l-.08-.04a4.14 4.14 0 0 1-1.73-1.75v-.01l-.67-1.29a2.6 2.6 0 0 0-1.99-1.17l-1.26.06-2.13 11.7zm28.37-30.8l.78-1.2a.5.5 0 0 0 .08-.42.5.5 0 0 0-.28-.32l-1.28-.66a6.15 6.15 0 0 1-3.15-5.43l.07-1.44c0-.16-.04-.3-.13-.4a.5.5 0 0 0-.38-.14l-1.47.07a6.16 6.16 0 0 1-5.45-3.13l-.66-1.28c-.14-.26-.33-.3-.44-.3-.1 0-.2.04-.3.1l-1.21.78a6.38 6.38 0 0 1-6.3 0l-1.21-.78a.56.56 0 0 0-.3-.1c-.1 0-.3.04-.43.3l-.66 1.27a6.2 6.2 0 0 1-5.46 3.2h-1.44c-.23 0-.34.01-.4.08-.1.1-.14.2-.13.36l.06 1.42a6.14 6.14 0 0 1-3.14 5.43l-1.29.65a.5.5 0 0 0-.27.32.5.5 0 0 0 .08.41l.78 1.21a6.14 6.14 0 0 1 0 6.28l-.78 1.21a.5.5 0 0 0-.08.41c.02.1.09.22.27.32l1.29.66a6.15 6.15 0 0 1 3.14 5.43l-.06 1.44c-.01.16.03.3.13.4l.09.06.03.01c.12.06.2.07.26.07l1.46-.07a6.19 6.19 0 0 1 5.45 3.13l.67 1.28c.05.11.12.16.19.2l.09.06h.02a.5.5 0 0 0 .37-.04c.02-.02.05-.02.07-.03l1.2-.77a5.4 5.4 0 0 1 1.66-.67l.05-.02.1-.01c.34-.08.7-.12 1.07-.14h.06l.21-.02c.72 0 1.4.13 2.04.35l.17.06c.33.13.65.27.94.45l1.21.78c.1.06.2.1.3.1.1 0 .3-.04.44-.3l.66-1.28a6.07 6.07 0 0 1 5.45-3.02l1.44.18c.11 0 .2-.05.28-.11l.11-.13a.68.68 0 0 0 .15-.47l-.07-1.46a6.17 6.17 0 0 1 3.15-5.45l1.28-.66c.18-.1.25-.23.28-.32a.5.5 0 0 0-.09-.42l-.77-1.21a6.14 6.14 0 0 1 0-6.28zm-16.97 14.1a10.98 10.98 0 0 1-10.98-10.96 10.98 10.98 0 0 1 21.97 0c0 6.04-4.93 10.95-10.99 10.95zm0-20.09a9.15 9.15 0 0 0-9.16 9.13 9.16 9.16 0 0 0 18.32 0c0-5.03-4.1-9.13-9.16-9.13zm0 15.84a6.72 6.72 0 0 1-6.39-4.6.92.92 0 0 1 .58-1.15c.48-.15 1 .1 1.16.58a4.9 4.9 0 0 0 4.65 3.35.91.91 0 1 1 0 1.82zm-4.9-7.84a.91.91 0 0 1-1.83 0c0-.61.09-.97.23-1.5a.91.91 0 0 1 1.76.47c-.11.42-.16.63-.16 1.03z"/></defs><use fill="#f5c31d" xlink:href="#a" transform="translate(-776 -6665)"/><use fill="#423e3a" xlink:href="#b" transform="translate(-776 -6665)"/></svg>