<svg xmlns="http://www.w3.org/2000/svg" xmlns:xlink="http://www.w3.org/1999/xlink" width="59" height="53"><defs><path id="a" d="M777.29 6464v10.61h19.47l-20.76 24.9v9.49h38v-10.55h-20.4l19.7-25.13V6464z"/><path id="b" d="M834.54 6486.67l-24.58 24.58c-1.65 1.65-3.1 2.75-4.8 2.75-1.71 0-3.16-1.1-4.81-2.75l-15.6-15.6c-3.68-3.68-3.68-5.93 0-9.61l24.58-24.57a1.6 1.6 0 0 1 1.3-.47l20.84 2.06.19.03c.72.14 1.25.77 1.29 1.5l2.05 20.79c.05.48-.12.95-.46 1.3zm-4.68-20.53l-18.8-1.85-24.02 24.03c-2.42 2.4-2.42 2.64 0 5.05l15.59 15.6c.77.77 1.88 1.8 2.53 1.8.64 0 1.75-1.03 2.52-1.8l24.04-24.04zm-9.58 2.7a6.7 6.7 0 1 1-.02 13.39 6.7 6.7 0 0 1 .02-13.39zm0 10.15a3.46 3.46 0 1 0-.01-6.93 3.46 3.46 0 0 0 0 6.93zm-18.64 1.15a.8.8 0 0 1-1.14 0 .8.8 0 0 1 0-1.14l.65-.66a.8.8 0 0 1 1.14 1.14zm-8.97 8.97c-1.49 1.49-1.5 1.68-.24 2.94a.8.8 0 1 1-1.14 1.14c-2.12-2.12-1.61-3.37.24-5.22l7.33-7.33a.8.8 0 0 1 1.14 1.14z"/></defs><use fill="#f5c31d" xlink:href="#a" transform="translate(-776 -6461)"/><use fill="#423e3a" xlink:href="#b" transform="translate(-776 -6461)"/></svg>