<svg xmlns="http://www.w3.org/2000/svg" xmlns:xlink="http://www.w3.org/1999/xlink" width="63" height="53"><defs><path id="a" d="M376.29 6672v10.61h19.47l-20.76 24.9v9.49h38v-10.55h-20.4l19.7-25.13V6672z"/><path id="b" d="M438 6692.5c0 6-2.04 11.54-5.42 15.99l4.45 5.47a3.02 3.02 0 0 1-.26 4.16c-.6.58-1.36.88-2.13.88a3.1 3.1 0 0 1-2.03-.78l-5.22-4.57a26.33 26.33 0 0 1-31.93-.1l-5.34 4.67c-.6.52-1.31.78-2.03.78-.76 0-1.52-.3-2.13-.88a3.02 3.02 0 0 1-.25-4.16l4.58-5.64a26.33 26.33 0 0 1-2.8-26.98 9.04 9.04 0 0 1-2.5-6.23c0-5.02 4.1-9.11 9.12-9.11 2.41 0 4.6.96 6.22 2.5a26.3 26.3 0 0 1 22.32 0 9.06 9.06 0 0 1 6.24-2.5c5.02 0 9.1 4.09 9.1 9.1 0 2.42-.95 4.6-2.5 6.24a26.3 26.3 0 0 1 2.5 11.16zm-5.29 21.4l-2.32-2.85-.44.43zm-42.69 0l2.9-2.53-.45-.48zm4.09-44.59a5.8 5.8 0 0 0-5.8 5.8c0 1.14.34 2.19.92 3.08a26.67 26.67 0 0 1 7.95-7.95 5.67 5.67 0 0 0-3.07-.93zm18.22.04v1.62a.83.83 0 1 1-1.66 0v-1.62c-5.77.2-11 2.52-14.95 6.2l1.14 1.14a.83.83 0 1 1-1.17 1.17l-1.14-1.14c-3.68 3.96-6 9.18-6.2 14.95h1.62a.83.83 0 1 1 0 1.66h-1.62c.2 5.76 2.52 10.99 6.2 14.94l1.14-1.13a.83.83 0 0 1 1.17 1.17l-1.14 1.13c3.96 3.69 9.18 6 14.95 6.2v-1.61a.83.83 0 1 1 1.66 0v1.61c5.76-.2 10.99-2.51 14.94-6.2l-1.13-1.13a.83.83 0 1 1 1.17-1.17l1.13 1.13c3.69-3.95 6-9.18 6.2-14.94h-1.61a.83.83 0 1 1 0-1.66h1.61c-.2-5.77-2.51-11-6.2-14.95l-1.13 1.14a.82.82 0 0 1-1.17 0 .83.83 0 0 1 0-1.17l1.13-1.14c-3.95-3.68-9.18-6-14.94-6.2zm16.56-.04c-1.14 0-2.2.34-3.1.91a26.67 26.67 0 0 1 7.96 7.95c.57-.9.93-1.93.93-3.06 0-3.2-2.6-5.8-5.8-5.8zm-17.4 40.26a17.1 17.1 0 0 1-17.06-17.07c0-9.13 7.21-16.6 16.24-17.03v-1.19a.83.83 0 1 1 1.66 0v1.19c9.02.44 16.24 7.9 16.24 17.03a17.1 17.1 0 0 1-17.07 17.07zm0-19.56a2.49 2.49 0 1 0 .01 4.98 2.49 2.49 0 0 0 0-4.98zm.84-12.88v11.31c.52.11 1.01.32 1.45.6l3.76-3.75a.83.83 0 0 1 1.17 1.17l-3.76 3.76a4.14 4.14 0 1 1-4.28-1.78v-11.31a15.42 15.42 0 0 0-14.59 15.37c0 8.5 6.92 15.41 15.42 15.41s15.41-6.91 15.41-15.41c0-8.22-6.47-14.94-14.58-15.37z"/></defs><use fill="#f5c31d" xlink:href="#a" transform="translate(-375 -6666)"/><use fill="#423e3a" xlink:href="#b" transform="translate(-375 -6666)"/></svg>