<svg xmlns="http://www.w3.org/2000/svg" xmlns:xlink="http://www.w3.org/1999/xlink" width="29" height="30"><defs><path id="a" d="M670.68 6998.12a.46.46 0 0 1-.57-.32c-3.46-11.93-15.25-15.82-15.37-15.86a.48.48 0 0 1-.3-.6c.07-.24.33-.39.58-.3.12.03 12.38 4.07 15.97 16.49a.48.48 0 0 1-.31.6zm-15.66-11.38c.32.1 8.1 2.67 10.44 10.79a.48.48 0 0 1-.31.6.46.46 0 0 1-.57-.32c-2.2-7.63-9.76-10.13-9.84-10.16a.48.48 0 0 1-.3-.6c.07-.24.33-.39.58-.3zm5.39 11.4a.46.46 0 0 1-.44-.34c-1.18-4.05-5.19-5.38-5.23-5.39a.48.48 0 0 1-.3-.6c.07-.24.33-.39.58-.3.18.05 4.52 1.48 5.83 6.02a.48.48 0 0 1-.3.6.48.48 0 0 1-.14.01zm-9.83-3.8c-1.6.66-1.95 1.12-2.02 1.24.38 2.33 5.27 7.27 8.5 8.6.06-.04.46-.3 1.05-1.55.31-.67.88-1.17 1.57-1.38.68-.2 1.42-.1 2.02.3l4.6 2.96c.55.36.91.95.98 1.62.08.67-.15 1.32-.6 1.8a9.93 9.93 0 0 1-9.07 2.9c-6.39-1.1-14-7.09-15.5-16-.7-4.87 1.51-8 2.89-9.43a2.08 2.08 0 0 1 3.21.23l3.46 4.75a2.62 2.62 0 0 1-1.09 3.95zm-.39-2.81l-3.45-4.76a.27.27 0 0 0-.2-.12h-.03a.28.28 0 0 0-.2.1 9.07 9.07 0 0 0-2.38 7.77c1.3 7.74 8.14 13.42 13.99 14.42a8.17 8.17 0 0 0 7.45-2.36.28.28 0 0 0 .08-.24.3.3 0 0 0-.13-.21l-4.6-2.97a.63.63 0 0 0-.52-.08.68.68 0 0 0-.43.38c-.93 2-1.99 2.87-3.13 2.6a.9.9 0 0 1-.12-.05c-3.38-1.32-9.38-6.8-9.8-10.28-.13-1.6 1.75-2.57 3.17-3.16a.7.7 0 0 0 .3-1.04z"/></defs><use fill="#fff" xlink:href="#a" transform="translate(-642 -6981)"/></svg>