<svg xmlns="http://www.w3.org/2000/svg" xmlns:xlink="http://www.w3.org/1999/xlink" width="22" height="32"><defs><path id="a" d="M888.54 64.26c-.36.45-.9.72-1.47.74H887c-.55 0-1.07-.23-1.45-.64-.4-.42-9.55-10.44-9.55-20.18A11.1 11.1 0 0 1 887 33c6.07 0 11 5.01 11 11.18 0 8.28-9.07 19.6-9.46 20.08zM887 35.02c-4.98 0-9.01 4.1-9.01 9.16 0 9.05 9.01 18.8 9.01 18.8s9-11.15 9-18.8a9.08 9.08 0 0 0-9-9.16zm1 24.19a.5.5 0 0 1-.32-.12.51.51 0 0 1-.07-.7c.02-.03 1.84-2.3 3.35-5.05a.5.5 0 0 1 .68-.2c.24.14.33.45.2.7-1.57 2.83-3.38 5.09-3.46 5.18a.5.5 0 0 1-.38.19zm-1-11.39a3.76 3.76 0 0 1-3.73-3.79 3.76 3.76 0 0 1 3.73-3.78c2.05 0 3.73 1.7 3.73 3.78a3.76 3.76 0 0 1-3.73 3.8zm0-6.56a2.76 2.76 0 0 0-2.73 2.77 2.76 2.76 0 0 0 2.73 2.78c1.5 0 2.73-1.25 2.73-2.78a2.76 2.76 0 0 0-2.73-2.77zm0-3.76a6.45 6.45 0 0 0-1.03.08.5.5 0 0 1-.5-.43.5.5 0 0 1 .42-.58 7.5 7.5 0 0 1 1.11-.08.5.5 0 1 1 0 1.01zm-3.54 1.09a6.55 6.55 0 0 0-2.88 5.44.5.5 0 0 1-.5.51.5.5 0 0 1-.5-.5 7.56 7.56 0 0 1 3.33-6.3.5.5 0 0 1 .69.14c.15.24.09.55-.14.7z"/></defs><use fill="#423e3a" xlink:href="#a" transform="translate(-876 -33)"/></svg>